# xmcd CD database file
#
# Track frame offsets:
#	150
#	23177
#	51370
#	97970
#	123330
#	125122
#	164622
#	175690
#	210590
#	227505
#	255117
#	271197
#	295060
#	315240
#
# Disc length: 4409 seconds
#
# Revision: 0
# Processed by: cddbd v1.5.2PL0 Copyright (c) Steve Scherf et al.
# Submitted via: CDex 1.70beta2
#
DISCID=b611370e
DTITLE=Kip Hanrahan - Drawn from Memory
DYEAR=2001
DGENRE=Jazz
TTITLE0=Geography
TTITLE1=Ah, Intruder! (Female)
TTITLE2=Velasquez
TTITLE3=Faith in the Pants, Not in the Prick (Vallejo's Folk Song)
TTITLE4=Vallejo
TTITLE5=Una Noche de Verano Comenca
TTITLE6=Shahrazade and the Opening of the First Shadow Night
TTITLE7=You Can Tell a Guy By His Anger
TTITLE8=Gillian's Folk Song
TTITLE9=The Tale of Blue Shalimah, The Singer (beginning)
TTITLE10=Gender
TTITLE11=at the same time, as the subway train was leaving the station...
TTITLE12=Nancy (The Silence Focuses on You)
TTITLE13=The Last Song on The Album-
EXTD=YEAR: 2001
EXTT0=
EXTT1=
EXTT2=
EXTT3=
EXTT4=
EXTT5=
EXTT6=
EXTT7=
EXTT8=
EXTT9=
EXTT10=
EXTT11=
EXTT12=
EXTT13=
PLAYORDER=
